# xmcd
#
# Track frame offsets: 
#        150
#        15521
#        34190
#        74244
#        96450
#        118501
#        140165
#        154325
#        172474
#        218234
#        256135
#
# Disc length: 3818 seconds
#
# Revision: 0
# Processed by: cddbd v1.5.2PL0 Copyright (c) Steve Scherf et al.
# Submitted via: ExactAudioCopyFreeDBPlugin 1.0
#
DISCID=ad0ee80b
DTITLE=Joe Colombo - Live at Tacos
DYEAR=2012
DGENRE=Blues
TTITLE0=Tequila Shot
TTITLE1=Funky Wha!
TTITLE2=Rough Enough
TTITLE3=Hideaway
TTITLE4=She Likes To Boogie Real Low
TTITLE5=Crazy
TTITLE6=Travis Walk
TTITLE7=Testify
TTITLE8=Playin' The Blues
TTITLE9=Little Wing
TTITLE10=Voodoo Chile
EXTD=
EXTT0=
EXTT1=
EXTT2=
EXTT3=
EXTT4=
EXTT5=
EXTT6=
EXTT7=
EXTT8=
EXTT9=
EXTT10=
PLAYORDER=
